<svg width="21" height="18" viewBox="0 0 21 18" fill="none" xmlns="http://www.w3.org/2000/svg">
<path d="M20.9155 2.17692C20.162 2.53579 19.359 2.77367 18.5219 2.88917C19.3831 2.33092 20.0404 1.45367 20.3494 0.396291C19.5465 0.916041 18.66 1.28317 17.7152 1.48804C16.9528 0.606666 15.8662 0.060791 14.6808 0.060791C12.3809 0.060791 10.5294 2.08754 10.5294 4.57217C10.5294 4.92967 10.5572 5.27341 10.6256 5.60066C7.17202 5.41779 4.11608 3.62067 2.06317 0.883041C1.70476 1.55817 1.49453 2.33092 1.49453 3.16279C1.49453 4.72479 2.2354 6.10941 3.33975 6.91104C2.67233 6.89729 2.01757 6.68691 1.46287 6.35554C1.46287 6.36929 1.46287 6.38716 1.46287 6.40504C1.46287 8.59679 2.90282 10.4173 4.79109 10.8367C4.45295 10.937 4.08442 10.9852 3.70195 10.9852C3.436 10.9852 3.16751 10.9687 2.91549 10.9082C3.45373 12.6943 4.98106 14.0074 6.79715 14.05C5.38379 15.2504 3.58924 15.9737 1.6465 15.9737C1.30583 15.9737 0.979087 15.9572 0.652344 15.9118C2.49249 17.2002 4.67331 17.9358 7.02511 17.9358C14.6694 17.9358 18.8487 11.0608 18.8487 5.10154C18.8487 4.90216 18.8423 4.70967 18.8335 4.51854C19.6579 3.88329 20.3507 3.08992 20.9155 2.17692Z" fill="white"/>
</svg>
